<svg width="36.000000" height="36.000000" viewBox="0 0 36 36" fill="none" xmlns="http://www.w3.org/2000/svg" xmlns:xlink="http://www.w3.org/1999/xlink">
	<desc>
			Created with Pixso.
	</desc>
	<defs>
		<clipPath id="clip34_2306">
			<rect id="Property 1=Coins" rx="0.000000" width="35.000000" height="35.000000" transform="matrix(-1 0 0 1 36.5 0.5)" fill="white" fill-opacity="0"/>
		</clipPath>
	</defs>
	<rect id="Property 1=Coins" rx="0.000000" width="35.000000" height="35.000000" transform="matrix(-1 0 0 1 36.5 0.5)" fill="#FFFFFF" fill-opacity="0"/>
	<g clip-path="url(#clip34_2306)">
		<path id="Vector" d="M1.4 10.96L17.73 10.96C17.92 10.42 18.14 9.9 18.38 9.41C19.7 6.79 21.56 5.34 23.62 5.34L28.96 5.34C31.03 5.34 32.89 6.79 34.2 9.41C35.36 11.73 36 14.78 36 18C36 21.21 35.36 24.26 34.2 26.58C32.89 29.21 31.03 30.65 28.96 30.65L23.62 30.65C22.04 30.65 20.59 29.81 19.4 28.24L19.4 29.25C19.4 30.02 18.77 30.65 18 30.65L1.4 30.65C0.62 30.65 0 30.02 0 29.25C0 28.78 0 13.11 0 12.37C0 11.59 0.62 10.96 1.4 10.96ZM16.59 19.4L2.81 19.4L2.81 22.21L16.59 22.21L16.59 19.4ZM16.59 13.78L2.81 13.78L2.81 16.59L16.59 16.59L16.59 13.78ZM33.18 18C33.18 12.36 30.96 8.15 28.96 8.15C26.97 8.15 24.75 12.36 24.75 18C24.75 23.63 26.97 27.84 28.96 27.84C30.96 27.84 33.18 23.63 33.18 18ZM23.62 27.84L24.46 27.84C22.62 25.12 21.93 21.27 21.93 18C21.93 14.73 22.62 10.87 24.46 8.15L23.62 8.15C21.63 8.15 19.4 12.36 19.4 18C19.4 23.63 21.63 27.84 23.62 27.84ZM2.81 27.84L16.59 27.84L16.59 25.03L2.81 25.03L2.81 27.84Z" fill="#FFFFFF" fill-opacity="1.000000" fill-rule="nonzero"/>
	</g>
</svg>
