<svg width="36.000000" height="36.000000" viewBox="0 0 36 36" fill="none" xmlns="http://www.w3.org/2000/svg" xmlns:xlink="http://www.w3.org/1999/xlink">
	<desc>
			Created with Pixso.
	</desc>
	<defs>
		<clipPath id="clip34_2297">
			<rect id="Icons" rx="0.000000" width="35.000000" height="35.000000" transform="matrix(-1 0 0 1 36.5 0.5)" fill="white" fill-opacity="0"/>
		</clipPath>
	</defs>
	<rect id="Icons" rx="0.000000" width="35.000000" height="35.000000" transform="matrix(-1 0 0 1 36.5 0.5)" fill="#FFFFFF" fill-opacity="0"/>
	<g clip-path="url(#clip34_2297)">
		<path id="Vector" d="M4.17 5.53L5.53 5.53L5.53 1.4C5.53 0.62 6.16 0 6.93 0L29.06 0C29.83 0 30.46 0.62 30.46 1.4L30.46 5.53L31.82 5.53C34.13 5.53 36 7.39 36 9.7L36 26.29C36 28.59 34.12 30.46 31.82 30.46L24.42 30.46L25.78 33.18L29.06 33.18C29.83 33.18 30.46 33.81 30.46 34.59C30.46 35.37 29.83 36 29.06 36L6.93 36C6.16 36 5.53 35.37 5.53 34.59C5.53 33.81 6.16 33.18 6.93 33.18L10.21 33.18L11.57 30.46L4.17 30.46C1.87 30.46 0 28.59 0 26.29L0 9.7C0 7.4 1.87 5.53 4.17 5.53ZM4.17 8.34C3.42 8.34 2.81 8.95 2.81 9.7L2.81 22.12L5.53 22.12L5.53 8.34L4.17 8.34ZM27.65 2.81L8.34 2.81L8.34 22.12L27.65 22.12L27.65 2.81ZM31.82 8.34L30.46 8.34L30.46 22.12L33.18 22.12L33.18 9.7C33.18 8.95 32.57 8.34 31.82 8.34ZM13.36 33.18L22.63 33.18L21.27 30.46L14.72 30.46L13.36 33.18ZM4.17 27.65L31.82 27.65C32.57 27.65 33.18 27.04 33.18 26.29L33.18 24.93L2.81 24.93L2.81 26.29C2.81 27.04 3.42 27.65 4.17 27.65ZM24.93 9.7C24.93 8.92 24.3 8.29 23.53 8.29L22.14 8.29C21.37 8.29 20.74 8.92 20.74 9.7C20.74 10.48 21.37 11.1 22.14 11.1L23.53 11.1C24.3 11.1 24.93 10.48 24.93 9.7ZM19.4 9.7C19.4 8.92 18.77 8.29 18 8.29L12.46 8.29C11.69 8.29 11.06 8.92 11.06 9.7C11.06 10.48 11.69 11.1 12.46 11.1L18 11.1C18.77 11.1 19.4 10.48 19.4 9.7ZM24.93 16.58C24.93 15.8 24.3 15.17 23.53 15.17L22.14 15.17C21.37 15.17 20.74 15.8 20.74 16.58C20.74 17.36 21.37 17.99 22.14 17.99L23.53 17.99C24.3 17.99 24.93 17.36 24.93 16.58ZM19.4 16.58C19.4 15.8 18.77 15.17 18 15.17L12.46 15.17C11.69 15.17 11.06 15.8 11.06 16.58C11.06 17.36 11.69 17.99 12.46 17.99L18 17.99C18.77 17.99 19.4 17.36 19.4 16.58Z" fill="#FFFFFF" fill-opacity="1.000000" fill-rule="nonzero"/>
	</g>
</svg>
