<svg width="36.000000" height="36.000000" viewBox="0 0 36 36" fill="none" xmlns="http://www.w3.org/2000/svg" xmlns:xlink="http://www.w3.org/1999/xlink">
	<desc>
			Created with Pixso.
	</desc>
	<defs/>
	<path id="Vector" d="M1.4 24.75L10.96 24.75L10.96 17.71C10.96 16.94 11.59 16.31 12.37 16.31L23.62 16.31C24.4 16.31 25.03 16.94 25.03 17.71L25.03 21.93L34.59 21.93C35.37 21.93 36 22.56 36 23.34L36 34.59C36 35.37 35.37 36 34.59 36L1.4 36C0.62 36 0 35.37 0 34.59L0 26.15C0 25.37 0.62 24.75 1.4 24.75ZM25.03 33.18L33.18 33.18L33.18 24.75L25.03 24.75L25.03 33.18ZM13.78 26.15L13.78 33.18L22.21 33.18L22.21 23.34L22.21 19.12L13.78 19.12L13.78 26.15ZM2.81 33.18L10.96 33.18L10.96 27.56L2.81 27.56L2.81 33.18ZM21.87 8.39L22.38 11.34C22.47 11.87 22.25 12.4 21.82 12.71C21.39 13.03 20.81 13.07 20.34 12.82L17.69 11.43L15.03 12.82C14.56 13.07 13.98 13.03 13.55 12.71C13.12 12.4 12.9 11.87 12.99 11.34L13.5 8.39L11.35 6.29C10.97 5.92 10.83 5.36 11 4.85C11.16 4.34 11.6 3.97 12.13 3.9L15.1 3.47L16.42 0.78C16.66 0.3 17.15 0 17.69 0C18.22 0 18.71 0.3 18.95 0.78L20.27 3.47L23.24 3.9C23.77 3.97 24.21 4.34 24.37 4.85C24.54 5.36 24.4 5.92 24.02 6.29L21.87 8.39ZM19.14 6.14C18.68 6.08 18.28 5.79 18.08 5.37L17.69 4.58L17.29 5.37C17.09 5.79 16.69 6.08 16.23 6.14L15.36 6.27L15.99 6.89C16.32 7.21 16.47 7.68 16.4 8.13L16.25 9.01L17.03 8.59C17.44 8.38 17.93 8.38 18.34 8.59L19.12 9.01L18.97 8.13C18.9 7.68 19.05 7.21 19.38 6.89L20.01 6.27L19.14 6.14Z" fill="#FFFFFF" fill-opacity="1.000000" fill-rule="nonzero"/>
</svg>
