<svg width="146.839844" height="15.257690" viewBox="0 0 146.84 15.2577" fill="none" xmlns="http://www.w3.org/2000/svg" xmlns:xlink="http://www.w3.org/1999/xlink">
	<desc>
			Created with Pixso.
	</desc>
	<defs>
		<linearGradient x1="80.625420" y1="18.666834" x2="80.625420" y2="-1.767836" id="paint_linear_6_7830_0" gradientUnits="userSpaceOnUse">
			<stop stop-color="#612CF7"/>
			<stop offset="1.000000" stop-color="#05C0CC"/>
		</linearGradient>
	</defs>
	<path id="Subtract" d="M74.6719 1.0072L74.5972 0.850159L72.4531 0.850159L72.4531 15.0149L74.8853 15.0149L74.8853 15.0146L74.6719 15.0146L74.6719 1.0072ZM76.6719 10.413L78.165 13.5175L79.333 13.5175L82.6289 6.51605L82.645 15.0149L85.0771 15.0149L85.0449 0.850159L82.917 0.850159L78.7891 9.65253L76.6719 5.20679L76.6719 10.413ZM124.911 10.7452L123.71 12.2427L123.71 15.0149L121.215 15.0149L121.215 0.000305176L123.71 0.000305176L123.71 8.49915L127.358 4.1283L130.334 4.1283L126.75 8.74194L130.655 15.0149L127.631 15.0149L124.911 10.7452ZM0 0.850159L2.5918 0.850159L2.5918 15.0149L0 15.0149L0 0.850159ZM15.4419 15.0149L15.4258 6.51605L12.1299 13.5175L10.9619 13.5175L7.68213 6.69818L7.68213 15.0149L5.25 15.0149L5.25 0.850159L7.39404 0.850159L11.5859 9.65253L15.7139 0.850159L17.8418 0.850159L17.874 15.0149L15.4419 15.0149ZM22.6719 0.850159L20.5312 0.850159L20.5312 15.0149L23.123 15.0149L23.123 15.0146L22.6719 15.0146L22.6719 0.850159ZM24.6719 11.1095L25.3794 11.1095C26.3711 11.1095 27.23 10.9071 27.9551 10.5024C28.6914 10.0842 29.2563 9.49066 29.6514 8.72174C30.0459 7.93927 30.2432 7.02869 30.2432 5.98993C30.2432 4.93774 30.0459 4.0271 29.6514 3.25818C29.2563 2.48926 28.6914 1.89569 27.9551 1.47748C27.23 1.05927 26.3711 0.850159 25.3794 0.850159L24.6719 0.850159L24.6719 3.52124L25.2354 3.52124Q26.2778 3.52124 26.874 4.03699L26.874 4.03711L26.874 4.03717Q26.876 4.03876 26.8779 4.04041L26.8784 4.04065Q26.9478 4.1012 27.0112 4.16876C27.4165 4.58698 27.6191 5.19403 27.6191 5.98993C27.6191 6.7724 27.4165 7.37946 27.0112 7.81116Q26.9658 7.85815 26.917 7.90167Q26.3154 8.43842 25.2354 8.43842L24.6719 8.43842L24.6719 11.1095ZM40.7656 12.3843L40.7656 15.0149L32.0938 15.0149L32.0938 0.850159L40.5576 0.850159L40.5576 3.48077L34.6699 3.48077L34.6699 6.55652L39.8696 6.55652L39.8696 9.1062L34.6699 9.1062L34.6699 12.3843L40.7656 12.3843ZM42.8281 0.850159L44.6719 0.850159L44.6719 15.0146L45.4199 15.0146L45.4199 15.0149L42.8281 15.0149L42.8281 0.850159ZM47.8042 11.069L46.6719 11.069L46.6719 8.45868L47.5322 8.45868C48.311 8.45868 48.9028 8.2428 49.3081 7.81116Q49.335 7.78271 49.3604 7.75323L49.3613 7.75201L49.3613 7.75189Q49.916 7.11084 49.916 5.98993Q49.916 4.82068 49.333 4.19489Q49.3208 4.1817 49.3081 4.16876C48.9028 3.73706 48.311 3.52124 47.5322 3.52124L46.6719 3.52124L46.6719 0.850159L47.6763 0.850159C48.668 0.850159 49.5269 1.05927 50.252 1.47748Q50.7339 1.75128 51.1182 2.12524Q51.6143 2.60815 51.9482 3.25818C52.3428 4.0271 52.54 4.93774 52.54 5.98993C52.54 7.04218 52.3374 7.95276 51.9321 8.72174C51.5376 9.47717 50.9722 10.0573 50.2363 10.462L52.748 15.0149L49.9644 15.0149L47.8042 11.069ZM54.5938 0.850159L57.1855 0.850159L57.1855 15.0149L54.5938 15.0149L54.5938 0.850159ZM64.8198 15.2577C63.2197 15.2577 61.9717 14.6979 61.0757 13.5782C60.1904 12.4585 59.7476 10.8599 59.7476 8.78241L59.7476 0.850159L62.3398 0.850159L62.3398 8.66101C62.3398 11.1971 63.1719 12.4653 64.8359 12.4653Q65.5693 12.4653 66.0933 12.1338L66.0942 12.1334Q66.438 11.9155 66.6919 11.5547Q67.3315 10.6238 67.3315 8.66101L67.3315 0.850159L69.8916 0.850159L69.8916 8.78241C69.8916 10.8599 69.4438 12.4585 68.5479 13.5782C67.6626 14.6979 66.4199 15.2577 64.8198 15.2577ZM100.146 7.64923C100.786 7.90558 101.287 8.33722 101.65 8.94434C102.013 9.5379 102.194 10.2731 102.194 11.15C102.194 12.3911 101.81 13.3489 101.042 14.0234C100.285 14.6844 99.1753 15.0149 97.7139 15.0149L91.9219 15.0149L91.9219 0.850159L97.394 0.850159C98.7593 0.850159 99.8047 1.18073 100.53 1.84174C101.266 2.50275 101.634 3.39984 101.634 4.53302C101.634 5.22101 101.5 5.83484 101.234 6.37445C100.978 6.914 100.615 7.33899 100.146 7.64923ZM94.498 3.31891L94.498 6.65771L97.0737 6.65771C97.7139 6.65771 98.1992 6.51605 98.5298 6.23279C98.8604 5.94946 99.0259 5.53131 99.0259 4.97821C99.0259 4.42511 98.8604 4.01361 98.5298 3.74384C98.1992 3.46057 97.7139 3.31891 97.0737 3.31891L94.498 3.31891ZM106.364 5.565C106.663 5.03888 107.063 4.64093 107.564 4.37115C108.076 4.10132 108.663 3.96643 109.324 3.96643L109.324 6.88031C109.047 6.85333 108.86 6.83984 108.764 6.83984C108.05 6.83984 107.49 7.09613 107.084 7.60876C106.679 8.10791 106.476 8.86334 106.476 9.87512L106.476 15.0149L103.98 15.0149L103.98 4.1283L106.364 4.1283L106.364 5.565ZM114.826 15.1768C113.919 15.1768 113.104 14.9407 112.378 14.4686C111.664 13.9829 111.104 13.3151 110.698 12.4653Q110.09 11.1904 110.09 9.57159Q110.09 7.95276 110.698 6.67798C111.104 5.82806 111.664 5.16705 112.378 4.69489C113.104 4.20923 113.919 3.96643 114.826 3.96643C115.733 3.96643 116.543 4.20923 117.258 4.69489C117.973 5.16705 118.533 5.82806 118.938 6.67798Q119.546 7.95276 119.546 9.57159Q119.546 11.1904 118.938 12.4653C118.533 13.3151 117.973 13.9829 117.258 14.4686C116.543 14.9407 115.733 15.1768 114.826 15.1768ZM139.834 9.61206C139.834 9.65253 139.818 9.93585 139.786 10.462L133.274 10.462C133.392 11.1365 133.669 11.6693 134.106 12.0605C134.543 12.4518 135.087 12.6473 135.738 12.6473C136.186 12.6473 136.581 12.5664 136.922 12.4045C137.274 12.2292 137.6 11.9594 137.898 11.5952L139.226 13.4163C138.416 14.59 137.231 15.1768 135.674 15.1768C134.704 15.1768 133.845 14.9407 133.098 14.4686Q132.754 14.2445 132.458 13.9687L132.448 13.9596L132.447 13.9591L132.447 13.9584L132.445 13.9571Q131.787 13.3395 131.37 12.4653Q130.762 11.1904 130.762 9.57159C130.762 8.50586 130.959 7.5481 131.354 6.69818Q131.923 5.48572 132.871 4.78754L132.872 4.78729L132.872 4.78705Q132.936 4.73981 133.002 4.69489C133.706 4.20923 134.49 3.96643 135.354 3.96643Q136.076 3.96643 136.72 4.19104L136.726 4.19312L136.727 4.19342Q137.207 4.36169 137.642 4.65442C138.325 5.1131 138.858 5.77411 139.242 6.63745C139.637 7.48737 139.834 8.47888 139.834 9.61206ZM143.88 5.565C144.179 5.03888 144.579 4.64093 145.08 4.37115C145.592 4.10132 146.179 3.96643 146.84 3.96643L146.84 6.88031C146.562 6.85333 146.376 6.83984 146.28 6.83984C145.565 6.83984 145.005 7.09613 144.6 7.60876Q143.992 8.35748 143.992 9.87512L143.992 15.0149L141.496 15.0149L141.496 4.1283L143.88 4.1283L143.88 5.565ZM135.37 6.35419C134.805 6.35419 134.33 6.55652 133.946 6.96124Q133.37 7.5683 133.242 8.62054L137.482 8.62054Q137.354 7.58899 136.778 6.98193L136.778 6.98175L136.778 6.98151C136.394 6.56329 135.925 6.35419 135.37 6.35419ZM114.826 12.5867C115.466 12.5867 115.989 12.3168 116.394 11.7772C116.81 11.2241 117.018 10.489 117.018 9.57159C117.018 8.65424 116.81 7.92578 116.394 7.38617C115.989 6.83307 115.466 6.55652 114.826 6.55652C114.186 6.55652 113.658 6.83307 113.242 7.38617C112.826 7.92578 112.618 8.65424 112.618 9.57159C112.618 10.489 112.826 11.2241 113.242 11.7772C113.658 12.3168 114.186 12.5867 114.826 12.5867ZM97.522 12.5462Q98.5459 12.5462 99.0581 12.1212C99.4097 11.838 99.5859 11.3995 99.5859 10.806C99.5859 9.63232 98.8979 9.04547 97.522 9.04547L94.498 9.04547L94.498 12.5462L97.522 12.5462ZM88.5024 15.1768C88.0649 15.1768 87.6973 14.9879 87.3984 14.6102C87.0996 14.2325 86.9502 13.7603 86.9502 13.1937C86.9502 12.6136 87.0996 12.1483 87.3984 11.7975C87.6973 11.4332 88.0649 11.2512 88.5024 11.2512C88.9399 11.2512 89.3076 11.4332 89.6064 11.7975C89.9053 12.1483 90.0542 12.6136 90.0542 13.1937C90.0542 13.7603 89.9053 14.2325 89.6064 14.6102C89.3076 14.9879 88.9399 15.1768 88.5024 15.1768Z" clip-rule="evenodd" fill="#FFFFFF" fill-opacity="1.000000" fill-rule="evenodd"/>
	<path id="Subtract" d="M57.1855 0.849915L54.5938 0.849915L54.5938 15.0146L57.1855 15.0146L57.1855 0.849915ZM87.3984 14.6099C87.6973 14.9877 88.0649 15.1765 88.5024 15.1765C88.9395 15.1765 89.3076 14.9877 89.6064 14.6099C89.9048 14.2322 90.0542 13.76 90.0542 13.1934C90.0542 12.6133 89.9048 12.1479 89.6064 11.7972C89.3076 11.433 88.9395 11.2509 88.5024 11.2509C88.0649 11.2509 87.6973 11.433 87.3984 11.7972C87.0996 12.1479 86.9502 12.6133 86.9502 13.1934C86.9502 13.76 87.0996 14.2322 87.3984 14.6099ZM52.6719 15.0146L52.748 15.0146L52.6719 14.8765L52.6719 15.0146Z" clip-rule="evenodd" fill="url(#paint_linear_6_7830_0)" fill-opacity="0.800000" fill-rule="evenodd"/>
</svg>
