<svg width="41" height="40" viewBox="0 0 41 40" fill="none" xmlns="http://www.w3.org/2000/svg">
<g clip-path="url(#clip0_6796_9)">
<path d="M16.6719 8.52104C16.6719 9.16832 16.1473 9.69292 15.5 9.69292H14.4709L12.9612 12.0493C12.7122 12.4379 12.2643 12.637 11.8228 12.5789C11.3728 12.5203 10.997 12.2067 10.8585 11.7746L9.76262 8.3535L9.25038 9.15321C9.03477 9.48944 8.66307 9.69292 8.26367 9.69292H6.125C5.47772 9.69292 4.95312 9.16832 4.95312 8.52104C4.95312 7.87376 5.47772 7.34917 6.125 7.34917H7.6228L9.13251 4.99283C9.37741 4.6106 9.82098 4.40414 10.271 4.46297C10.7209 4.52179 11.0968 4.83513 11.2352 5.26749L12.3311 8.68835L12.8434 7.88887C13.059 7.55264 13.4307 7.34917 13.8301 7.34917H15.5C16.1473 7.34917 16.6719 7.87376 16.6719 8.52104ZM30.5 28.8281C30.5 29.4754 29.9754 30 29.3281 30H14.9562C14.3089 30 13.7843 29.4754 13.7843 28.8281C13.7843 27.0101 14.3581 25.2814 15.4437 23.8289C16.1281 22.9134 17.0024 22.1459 17.9889 21.5783C17.4613 20.787 17.153 19.8376 17.153 18.8173C17.153 18.2016 17.2656 17.6015 17.4782 17.0419H15.1793L16.7007 19.2588C16.9468 19.6175 16.974 20.0828 16.7714 20.4678C16.5686 20.8527 16.1695 21.0938 15.7344 21.0938H6.35938C5.92427 21.0938 5.5251 20.8527 5.32254 20.4678C5.11975 20.083 5.14699 19.6175 5.39326 19.2588L6.91464 17.0419H1.67188C1.0246 17.0419 0.5 16.5173 0.5 15.87V1.17188C0.5 0.524597 1.0246 0 1.67188 0H20.4219C21.0692 0 21.5938 0.524597 21.5938 1.17188V13.8588C21.7757 13.8387 21.9588 13.8281 22.1422 13.8281C24.8933 13.8281 27.1315 16.0664 27.1315 18.8173C27.1315 19.8376 26.823 20.787 26.2954 21.5783C27.2819 22.1459 28.1562 22.9134 28.8404 23.8287C29.9262 25.2814 30.5 27.0101 30.5 28.8281V28.8281ZM19.4967 18.8173C19.4967 20.2764 20.6835 21.4634 22.1422 21.4634C23.601 21.4634 24.7878 20.2764 24.7878 18.8173C24.7878 17.3586 23.601 16.1719 22.1422 16.1719C20.6876 16.1719 19.4967 17.3506 19.4967 18.8173V18.8173ZM13.509 18.75L12.3366 17.0421H9.75713L8.58479 18.75H13.509ZM19.25 14.6983V2.34375H2.84375V14.6983C4.97464 14.6983 18.429 14.6981 19.25 14.6983ZM28.043 27.6562C27.8713 26.7817 27.5062 25.9586 26.9631 25.2319C26.3092 24.3569 25.4161 23.6689 24.4127 23.2583C23.731 23.6082 22.9597 23.8071 22.1422 23.8071C21.3246 23.8071 20.553 23.6082 19.8714 23.2583C18.8682 23.6689 17.9749 24.3569 17.321 25.2319C16.7778 25.9586 16.4128 26.7819 16.2411 27.6562H28.043Z" fill="white"/>
</g>
<defs>
<clipPath id="clip0_6796_9">
<rect width="40" height="40" fill="white" transform="translate(0.5)"/>
</clipPath>
</defs>
</svg>
